<svg width="16" height="17" viewBox="0 0 16 17" fill="none" xmlns="http://www.w3.org/2000/svg">
<path d="M7.5 7.69995L7.52733 7.68662C7.61282 7.64391 7.70875 7.6266 7.80378 7.63672C7.8988 7.64685 7.98893 7.68399 8.0635 7.74376C8.13806 7.80352 8.19394 7.8834 8.22451 7.97394C8.25508 8.06448 8.25907 8.16188 8.236 8.25462L7.764 10.1453C7.74076 10.2381 7.74463 10.3356 7.77513 10.4262C7.80563 10.5169 7.86149 10.5969 7.93609 10.6567C8.01069 10.7166 8.10089 10.7538 8.196 10.7639C8.2911 10.7741 8.38712 10.7567 8.47267 10.714L8.5 10.7M14 8.19995C14 8.98788 13.8448 9.7681 13.5433 10.4961C13.2417 11.224 12.7998 11.8854 12.2426 12.4426C11.6855 12.9997 11.0241 13.4417 10.2961 13.7432C9.56815 14.0448 8.78793 14.2 8 14.2C7.21207 14.2 6.43185 14.0448 5.7039 13.7432C4.97595 13.4417 4.31451 12.9997 3.75736 12.4426C3.20021 11.8854 2.75825 11.224 2.45672 10.4961C2.15519 9.7681 2 8.98788 2 8.19995C2 6.60865 2.63214 5.08253 3.75736 3.95731C4.88258 2.83209 6.4087 2.19995 8 2.19995C9.5913 2.19995 11.1174 2.83209 12.2426 3.95731C13.3679 5.08253 14 6.60865 14 8.19995ZM8 5.69995H8.00533V5.70528H8V5.69995Z" stroke="#484C52" stroke-linecap="round" stroke-linejoin="round"/>
</svg>
