<svg width="16" height="16" viewBox="0 0 16 16" fill="none" xmlns="http://www.w3.org/2000/svg">
<path d="M10.4716 3.52822L11.6669 2.33296C11.9272 2.07261 12.3494 2.07261 12.6097 2.33296L13.6669 3.39015C13.9272 3.6505 13.9272 4.0726 13.6669 4.33296L12.4716 5.52822M10.4716 3.52822L6.39949 7.60042C6.22861 7.77129 6.10739 7.98542 6.04877 8.21982L5.47168 10.5282L7.78005 9.95109C8.01451 9.89249 8.22858 9.77129 8.39951 9.60042L12.4716 5.52822M10.4716 3.52822L12.4716 5.52822" stroke="white" stroke-linejoin="round"/>
<path d="M7.13766 3.19531H3.47103C2.73465 3.19531 2.1377 3.79227 2.1377 4.52865V12.5287C2.1377 13.2651 2.73465 13.862 3.47103 13.862H11.471C12.2074 13.862 12.8043 13.2651 12.8043 12.5287V8.86199" stroke="white" stroke-linecap="round" stroke-linejoin="round"/>
</svg>
