<svg width="48" height="48" viewBox="0 0 48 48" fill="none" xmlns="http://www.w3.org/2000/svg">
<rect width="48" height="48" rx="24" fill="white"/>
<path d="M32.092 26.326L32.285 24.432C32.388 23.421 32.455 22.754 32.402 22.333H32.422C33.293 22.333 34 21.587 34 20.667C34 19.747 33.293 19 32.421 19C31.549 19 30.842 19.746 30.842 20.667C30.842 21.083 30.987 21.464 31.226 21.756C30.883 21.979 30.434 22.451 29.758 23.161C29.238 23.708 28.978 23.981 28.688 24.024C28.5269 24.047 28.3626 24.0227 28.215 23.954C27.947 23.83 27.768 23.492 27.411 22.815L25.527 19.25C25.307 18.833 25.122 18.484 24.955 18.203C25.638 17.835 26.105 17.086 26.105 16.223C26.105 14.994 25.163 14 24 14C22.837 14 21.895 14.995 21.895 16.222C21.895 17.086 22.362 17.835 23.045 18.202C22.878 18.484 22.694 18.833 22.473 19.25L20.59 22.816C20.232 23.492 20.053 23.83 19.785 23.955C19.6374 24.0237 19.4731 24.048 19.312 24.025C19.022 23.982 18.762 23.708 18.242 23.161C17.566 22.451 17.117 21.979 16.774 21.756C17.014 21.464 17.158 21.083 17.158 20.666C17.158 19.747 16.45 19 15.578 19C14.708 19 14 19.746 14 20.667C14 21.587 14.707 22.333 15.579 22.333H15.598C15.544 22.753 15.612 23.421 15.715 24.432L15.908 26.326C16.015 27.377 16.104 28.377 16.214 29.278H31.786C31.896 28.378 31.985 27.377 32.092 26.326ZM22.855 34H25.145C28.13 34 29.623 34 30.619 33.06C31.053 32.648 31.329 31.908 31.527 30.944H16.473C16.671 31.908 16.946 32.648 17.381 33.059C18.377 34 19.87 34 22.855 34Z" fill="#FF981F"/>
</svg>
